<mxfile host="65bd71144e">
    <diagram id="w5CuunuuiqF-in1EyTbh" name="Page-1">
        <mxGraphModel dx="1562" dy="1548" grid="1" gridSize="10" guides="1" tooltips="1" connect="1" arrows="1" fold="1" page="1" pageScale="1" pageWidth="300" pageHeight="300" math="0" shadow="0">
            <root>
                <mxCell id="0"/>
                <mxCell id="1" parent="0"/>
                <mxCell id="46" value="" style="shape=cube;whiteSpace=wrap;html=1;boundedLbl=1;backgroundOutline=1;darkOpacity=0.05;darkOpacity2=0.1;size=350;fillColor=#B6ECF3;strokeColor=#888888;" vertex="1" parent="1">
                    <mxGeometry x="80" y="-500" width="365" height="1050" as="geometry"/>
                </mxCell>
                <mxCell id="45" value="" style="shape=cube;whiteSpace=wrap;html=1;boundedLbl=1;backgroundOutline=1;darkOpacity=0.05;darkOpacity2=0.1;size=350;fillColor=#DE958E;strokeColor=#888888;" vertex="1" parent="1">
                    <mxGeometry x="65" y="-500" width="365" height="1050" as="geometry"/>
                </mxCell>
                <mxCell id="44" value="" style="shape=cube;whiteSpace=wrap;html=1;boundedLbl=1;backgroundOutline=1;darkOpacity=0.05;darkOpacity2=0.1;size=350;fillColor=#444444;strokeColor=#888888;" vertex="1" parent="1">
                    <mxGeometry x="-105" y="-500" width="520" height="1050" as="geometry"/>
                </mxCell>
                <mxCell id="49" value="&lt;font style=&quot;font-size: 39px;&quot;&gt;Activation&lt;/font&gt;" style="text;html=1;strokeColor=none;fillColor=#DE958E;align=center;verticalAlign=middle;whiteSpace=wrap;rounded=0;fontColor=#444444;" vertex="1" parent="1">
                    <mxGeometry x="-235" y="-690" width="240" height="80" as="geometry"/>
                </mxCell>
                <mxCell id="50" value="&lt;font style=&quot;font-size: 39px;&quot;&gt;Batch Norm&lt;/font&gt;" style="text;html=1;strokeColor=none;fillColor=#B6ECF3;align=center;verticalAlign=middle;whiteSpace=wrap;rounded=0;fontColor=#444444;" vertex="1" parent="1">
                    <mxGeometry x="45" y="-690" width="240" height="80" as="geometry"/>
                </mxCell>
                <mxCell id="48" value="&lt;font style=&quot;font-size: 39px;&quot;&gt;Conv 2D&lt;/font&gt;" style="text;html=1;strokeColor=none;fillColor=#444444;align=center;verticalAlign=middle;whiteSpace=wrap;rounded=0;fontColor=#f1f1f1;" vertex="1" parent="1">
                    <mxGeometry x="-515" y="-690" width="240" height="80" as="geometry"/>
                </mxCell>
                <mxCell id="100" value="&lt;font style=&quot;font-size: 39px;&quot;&gt;filters&lt;/font&gt;" style="text;html=1;strokeColor=none;fillColor=none;align=center;verticalAlign=middle;whiteSpace=wrap;rounded=0;fontColor=#f1f1f1;" vertex="1" parent="1">
                    <mxGeometry x="245" y="540" width="170" height="80" as="geometry"/>
                </mxCell>
                <mxCell id="102" value="&lt;font style=&quot;font-size: 39px;&quot;&gt;input height - 4&lt;br&gt;&lt;/font&gt;" style="text;html=1;strokeColor=none;fillColor=none;align=center;verticalAlign=middle;whiteSpace=wrap;rounded=0;rotation=90;fontColor=#f1f1f1;" vertex="1" parent="1">
                    <mxGeometry x="15" y="140" width="390" height="80" as="geometry"/>
                </mxCell>
                <mxCell id="104" value="&lt;font style=&quot;font-size: 39px;&quot;&gt;input width - 4&lt;br&gt;&lt;/font&gt;" style="text;html=1;strokeColor=none;fillColor=none;align=center;verticalAlign=middle;whiteSpace=wrap;rounded=0;rotation=45;fontColor=#f1f1f1;" vertex="1" parent="1">
                    <mxGeometry x="-55" y="430" width="370" height="80" as="geometry"/>
                </mxCell>
                <mxCell id="107" value="" style="shape=flexArrow;endArrow=classic;html=1;fontSize=39;fontColor=#F0F0F0;endWidth=58.333333333333336;endSize=30.116666666666667;width=55;strokeWidth=6;fillColor=none;strokeColor=#f0f0f0;" edge="1" parent="1">
                    <mxGeometry width="50" height="50" relative="1" as="geometry">
                        <mxPoint x="-155" y="50" as="sourcePoint"/>
                        <mxPoint x="65" y="50" as="targetPoint"/>
                    </mxGeometry>
                </mxCell>
                <mxCell id="41" value="" style="shape=cube;whiteSpace=wrap;html=1;boundedLbl=1;backgroundOutline=1;darkOpacity=0.05;darkOpacity2=0.1;size=390;fillColor=#B6ECF3;strokeColor=#888888;" vertex="1" parent="1">
                    <mxGeometry x="-480" y="-540" width="410" height="1140" as="geometry"/>
                </mxCell>
                <mxCell id="39" value="" style="shape=cube;whiteSpace=wrap;html=1;boundedLbl=1;backgroundOutline=1;darkOpacity=0.05;darkOpacity2=0.1;size=390;fillColor=#DE958E;strokeColor=#888888;" vertex="1" parent="1">
                    <mxGeometry x="-495" y="-540" width="405" height="1140" as="geometry"/>
                </mxCell>
                <mxCell id="40" value="" style="shape=cube;whiteSpace=wrap;html=1;boundedLbl=1;backgroundOutline=1;darkOpacity=0.05;darkOpacity2=0.1;size=390;fillColor=#444444;strokeColor=#888888;" vertex="1" parent="1">
                    <mxGeometry x="-665" y="-540" width="560" height="1140" as="geometry"/>
                </mxCell>
                <mxCell id="85" value="&lt;font style=&quot;font-size: 39px;&quot;&gt;input height - 2&lt;/font&gt;" style="text;html=1;strokeColor=none;fillColor=none;align=center;verticalAlign=middle;whiteSpace=wrap;rounded=0;rotation=90;fontColor=#f1f1f1;" vertex="1" parent="1">
                    <mxGeometry x="-505" y="190" width="390" height="80" as="geometry"/>
                </mxCell>
                <mxCell id="53" value="&lt;font style=&quot;font-size: 39px;&quot;&gt;filters&lt;/font&gt;" style="text;html=1;strokeColor=none;fillColor=none;align=center;verticalAlign=middle;whiteSpace=wrap;rounded=0;fontColor=#f1f1f1;" vertex="1" parent="1">
                    <mxGeometry x="-275" y="590" width="170" height="80" as="geometry"/>
                </mxCell>
                <mxCell id="87" value="&lt;font style=&quot;font-size: 39px;&quot;&gt;input width - 2&lt;/font&gt;" style="text;html=1;strokeColor=none;fillColor=none;align=center;verticalAlign=middle;whiteSpace=wrap;rounded=0;rotation=45;fontColor=#f1f1f1;" vertex="1" parent="1">
                    <mxGeometry x="-575" y="480" width="370" height="80" as="geometry"/>
                </mxCell>
                <mxCell id="106" value="" style="shape=flexArrow;endArrow=classic;html=1;fontSize=39;fontColor=#F0F0F0;endWidth=58.333333333333336;endSize=30.116666666666667;width=55;strokeWidth=6;fillColor=none;strokeColor=#f0f0f0;" edge="1" parent="1">
                    <mxGeometry width="50" height="50" relative="1" as="geometry">
                        <mxPoint x="-745" y="50" as="sourcePoint"/>
                        <mxPoint x="-485" y="50" as="targetPoint"/>
                    </mxGeometry>
                </mxCell>
            </root>
        </mxGraphModel>
    </diagram>
</mxfile>
